<svg xmlns="http://www.w3.org/2000/svg" viewBox="0 0 1200 650"><rect width="1200" height="650" fill="#07151f"/><g opacity=".16" stroke="#8ed7ff"><path d="M0 110h1200M0 220h1200M0 330h1200M0 440h1200M0 550h1200"/><path d="M150 0v650M300 0v650M450 0v650M600 0v650M750 0v650M900 0v650M1050 0v650"/></g><g fill="none" stroke="#a9e7ff" stroke-width="7"><circle cx="310" cy="320" r="150"/><circle cx="310" cy="320" r="63"/><circle cx="820" cy="320" r="150"/><path d="M744 275c44-60 130-62 177-7M746 370c50 47 128 48 177-3"/></g><g fill="#f0b35d"><circle cx="255" cy="267" r="13"/><circle cx="370" cy="365" r="18"/><circle cx="770" cy="245" r="20"/><circle cx="877" cy="387" r="14"/><circle cx="844" cy="297" r="12"/></g><path d="M480 320h160" stroke="#f0b35d" stroke-width="7"/><path d="m630 292 36 28-36 28" fill="none" stroke="#f0b35d" stroke-width="7"/><text x="310" y="535" text-anchor="middle" fill="#dff5ff" font-family="Arial,sans-serif" font-size="34">functional cell</text><text x="820" y="535" text-anchor="middle" fill="#dff5ff" font-family="Arial,sans-serif" font-size="34">senescent state</text><text x="600" y="70" text-anchor="middle" fill="#ffffff" font-family="Arial,sans-serif" font-size="40" font-weight="700">CELLULAR SENESCENCE</text></svg>